<?xml version="1.0" encoding="utf-8"?>
<svg xmlns="http://www.w3.org/2000/svg" viewBox="0 0 512 512" width="512px" height="512px" xmlns:bx="https://boxy-svg.com" class="lerma-icon" id="LERMA.TECH">
  <defs>
    <linearGradient bx:pinned="true" id="border-radius">
      <stop style="stop-color: rgb(79, 238, 255);" offset="0"/>
      <stop style="stop-color: rgb(161, 118, 255);" offset="0.462"/>
      <stop style="stop-color: rgb(79, 238, 255);" offset="1"/>
    </linearGradient>
    <linearGradient id="background">
      <stop offset="0" style="stop-color: rgb(18, 22, 226);"/>
      <stop offset="0.42" style="stop-color: rgb(32, 28, 79);"/>
      <stop offset="1" style="stop-color: rgb(41, 32, 112);"/>
    </linearGradient>
    <linearGradient id="foreground">
      <stop offset="0" style="stop-color: rgb(112, 249, 243);"/>
      <stop offset="0.452" style="stop-color: rgb(45, 85, 194);"/>
      <stop offset="1" style="stop-color: rgb(235, 129, 255);"/>
    </linearGradient>
    <linearGradient id="gradient-1-0" href="#background" gradientUnits="userSpaceOnUse" x1="256.892" y1="7.186" x2="256.892" y2="501.511" gradientTransform="matrix(0.729722, -0.722531, 0.903712, 0.886973, -156.463913, 212.037832)"/>
    <linearGradient id="gradient-primary-0" href="#border-radius" gradientUnits="userSpaceOnUse" x1="256.892" y1="7.186" x2="256.892" y2="501.511" gradientTransform="matrix(1.034261, 0, 0, 1.019573, -10.075246, -3.709328)"/>
    <linearGradient id="gradient-icons-0" href="#foreground" gradientUnits="userSpaceOnUse" x1="227.418" y1="47.842" x2="227.418" y2="451.118" gradientTransform="matrix(0.777618, -0.628736, 0.426425, 0.527403, -5.868861, 291.507477)"/>
    <linearGradient id="gradient-icons-1" href="#foreground" gradientUnits="userSpaceOnUse" x1="382.525" y1="178.669" x2="382.525" y2="408.906"/>
    <linearGradient id="gradient-icons-2" href="#foreground" gradientUnits="userSpaceOnUse" x1="348.584" y1="78.063" x2="348.584" y2="164.565"/>
    <linearGradient id="gradient-icons-3" href="#foreground" gradientUnits="userSpaceOnUse" x1="337.405" y1="111.708" x2="337.405" y2="277.239"/>
    <linearGradient id="gradient-icons-4" href="#foreground" gradientUnits="userSpaceOnUse" x1="318.614" y1="144.169" x2="318.614" y2="254.942"/>
    <linearGradient id="gradient-icons-5" href="#foreground" gradientUnits="userSpaceOnUse" x1="297.138" y1="172.745" x2="297.138" y2="231.288"/>
    <linearGradient id="gradient-icons-6" href="#foreground" gradientUnits="userSpaceOnUse" x1="157.61" y1="153.922" x2="157.61" y2="377.642"/>
    <linearGradient id="gradient-icons-7" href="#foreground" gradientUnits="userSpaceOnUse" x1="118.814" y1="158.738" x2="118.814" y2="388.457"/>
    <bx:export>
      <bx:file format="webp" path="icon-512.webp"/>
      <bx:file format="webp" path="Sin título.webp"/>
      <bx:file format="webp" href="#object-0" path="foreground.webp"/>
    </bx:export>
  </defs>
  <rect width="504" height="504" style="stroke-width: 7px; fill: url(&quot;#gradient-1-0&quot;); stroke: url(&quot;#gradient-primary-0&quot;);" x="3.617" y="3.617" rx="120" ry="120">
    <title>background</title>
  </rect>
  <g transform="matrix(0.956563, 0, 0, 0.867889, 0.051839, 34.770424)" style="" id="object-0">
    <title>foreground</title>
    <path style="stroke: rgb(0, 0, 0); stroke-miterlimit: 1; stroke-linejoin: round; stroke-linecap: round; fill: url(&quot;#gradient-icons-1&quot;); stroke-width: 0px;" d="M 398.023 247.038 C 398.023 247.038 406.25908242803496 247.83948270440595 410.273 249.005 C 414.4373842439092 250.21420815506409 418.77508234791077 251.23108717588696 422.542 254.279 C 427.44257812099477 258.24418752998594 433.4866704471719 265.8885834913743 435.605 272.724 C 437.72001779904537 279.54873015604704 433.66967427402636 294.721437983178 435.263 295.253 C 436.19965141705495 295.56548369883984 438.27763032015935 291.4192655310632 439.843 288.956 C 441.8625782786887 285.77799187498977 444.4539643677419 282.3808656305192 446.095 277.603 C 448.4908057541889 270.6276255807456 450.95854211549585 259.05171272237266 450.45 250.324 C 449.9690361047301 242.06959081767204 447.3507803515389 232.87110073296225 443.747 226.541 C 440.7317093603124 221.2445913328539 436.38791274479047 217.8717014539806 431.825 214.007 C 426.8513695350113 209.79442834573177 419.5216889561908 206.48235611262726 414.805 202.486 C 410.8858546871752 199.16538664757084 407.94390451622854 196.0256876114347 405.029 192.201 C 401.9785155740976 188.19841606365938 397.16944293610226 179.5078219063439 397.007 178.891 C 396.99586447791387 178.8487166349847 397.0311731467743 178.84078895037797 397.009 178.818 C 396.68181253667956 178.48172572455277 381.108 178.818 381.108 178.818 C 381.108 178.818 381.108 178.818 381.108 178.818 C 381.108 178.818 381.108 178.81799999999998 381.108 178.818 C 381.108 178.818 383.1983407785078 309.2177990262109 382.457 331.257 C 382.25133278387966 337.371247645892 383.52634756462885 341.69096244406643 381.565 342.956 C 379.65224690978823 344.18969490343414 375.34003744668047 339.77823629944146 371.079 339.14 C 364.9220258421086 338.2177822416578 354.7215611564742 338.48627273880544 347.812 340.343 C 341.6581969592357 341.99664103552414 336.3580853405387 344.5983860904918 331.364 348.768 C 325.4684481746642 353.6902576746143 317.9645604475851 361.5986374984512 315.72 369.226 C 313.51063105299664 376.733776356208 314.50345086608075 387.8481444292603 317.725 394.098 C 320.4476639866979 399.3800106033319 325.4795773032695 403.14748159031984 331.364 405.571 C 338.91961065367775 408.68280254364413 351.5549655153068 409.91433396578975 360.649 407.978 C 369.58417787533307 406.07549034496174 379.4428416160929 400.24257391707556 385.521 394.339 C 390.7998731983553 389.2117531997404 394.2346138998394 382.79974634949514 396.351 375.886 C 398.6534505615893 368.36442387366213 397.5972247838092 361.897001103344 397.955 350.613 C 398.6782916795745 327.8008438164174 397.956 247.114 397.956 247.114" bx:d="M 398.023 247.038 R 410.273 249.005 R 422.542 254.279 R 435.605 272.724 R 435.263 295.253 R 439.843 288.956 R 446.095 277.603 R 450.45 250.324 R 443.747 226.541 R 431.825 214.007 R 414.805 202.486 R 405.029 192.201 R 397.007 178.891 R 397.009 178.818 R 381.108 178.818 R 381.108 178.818 R 381.108 178.818 R 382.457 331.257 R 381.565 342.956 R 371.079 339.14 R 347.812 340.343 R 331.364 348.768 R 315.72 369.226 R 317.725 394.098 R 331.364 405.571 R 360.649 407.978 R 385.521 394.339 R 396.351 375.886 R 397.955 350.613 R 397.956 247.114 1@d699264c">
      <title>eighth-note</title>
    </path>
    <path style="stroke: rgb(0, 0, 0); stroke-linecap: round; stroke-linejoin: round; fill: url(&quot;#gradient-icons-5&quot;); stroke-width: 0px;" d="M 287.48 184.742 C 287.48 184.742 284.17774455166455 182.13638955584815 283.544 180.53 C 282.95184529228584 179.0290306655579 282.91162592920483 176.79806500524217 283.544 175.497 C 284.1262445111654 174.29907302456434 285.5685122314811 173.19086327506193 286.899 172.861 C 288.3901732199824 172.49129853136063 290.48429879671073 173.06228801584467 292.172 173.82 C 294.10070794254585 174.68591460570997 295.80083558005066 176.3369489929075 297.684 178.134 C 300.0857827386032 180.42595392792117 303.2131811718411 183.66386692207183 305.113 186.762 C 306.9025099848044 189.68024672701955 307.9894592385077 192.88498555840232 308.947 196.108 C 309.9114005073997 199.35410386088364 310.58427805363675 202.53157747544913 310.865 206.174 C 311.1920367135267 210.41736574727005 311.5634944026103 216.02121771112317 310.386 220.073 C 309.3438926875527 223.65891254643978 307.17979921969845 227.70294634126884 304.868 229.465 C 303.1063521784777 230.8077281932011 300.3189784265503 231.682013496347 298.76 231.109 C 297.307688665139 230.57519274417132 295.8701986952196 228.3252773043066 295.645 226.589 C 295.38294726335624 224.56857879497346 297.5457103463466 222.02947379814 298.162 219.595 C 298.80137237355314 217.06934460169438 299.19094670805794 214.42233570409786 299.361 211.685 C 299.54246523078154 208.76396713084657 299.74036776590924 205.37944465701526 299.121 202.578 C 298.5465841008659 199.97987584807308 297.19952343808797 197.6307155197315 296.006 195.388 C 294.8688709988553 193.25125364260185 293.6253942275403 191.1967832522566 292.172 189.397 C 290.7709808496079 187.6620744339105 287.48 184.742 287.48 184.742 C 287.47999999999996 184.74199999999996 287.48 184.74199999999996 287.48 184.742" bx:d="M 287.48 184.742 R 283.544 180.53 R 283.544 175.497 R 286.899 172.861 R 292.172 173.82 R 297.684 178.134 R 305.113 186.762 R 308.947 196.108 R 310.865 206.174 R 310.386 220.073 R 304.868 229.465 R 298.76 231.109 R 295.645 226.589 R 298.162 219.595 R 299.361 211.685 R 299.121 202.578 R 296.006 195.388 R 292.172 189.397 R 287.48 184.742 Z 1@289d35c6">
      <title>sound-1</title>
    </path>
    <path style="stroke: rgb(0, 0, 0); stroke-linecap: round; stroke-linejoin: round; fill: url(&quot;#gradient-icons-4&quot;); stroke-width: 0px;" d="M 302.031 155.9 C 302.031 155.9 297.2073764989491 152.69561313530554 296.346 150.863 C 295.6818476437411 149.44998915815674 295.5852106090408 147.46332362202972 296.197 146.35 C 296.7864017587744 145.27741699904183 298.33993335509 144.43047512602027 299.807 144.221 C 301.7813471776207 143.9390928178861 304.4309447238813 144.84188924175655 307.163 146.093 C 311.3230185058904 147.99802877182086 317.24129768203136 151.69038537730822 321.591 156.17 C 326.7383211241581 161.47105586311403 332.1773936032121 170.5286417594847 335.102 176.781 C 337.25871814500505 181.39173137267363 338.0053421209761 185.23815183144634 338.996 189.605 C 339.99644457036203 194.01498818293263 340.6830253694122 198.74322548770016 341.057 203.117 C 341.4060959211883 207.1998086120191 341.589819171548 210.94496505255003 341.286 215.025 C 340.96009572252484 219.40161927273078 339.9865338047952 224.0771126996748 338.996 228.537 C 338.00277160970865 233.0090196955804 337.3466824500007 237.76532815135351 335.331 241.82 C 333.29784276396214 245.90982347831223 329.86056280912777 250.920257576184 326.808 252.951 C 324.64520407769055 254.389817710927 321.6541963093247 255.39130951484196 320.001 254.738 C 318.5352726264516 254.15877439085583 317.18150078408763 251.83904114751965 317.056 250.055 C 316.9026467740691 247.87502584960305 319.1654321698368 244.7528821680385 320.431 242.516 C 321.54785911071554 240.54195943936972 323.004187165658 239.51383290784852 324.11 237.239 C 325.74864835736065 233.86803966028407 327.3573065576259 228.1546436859264 328.232 223.728 C 329.04461512149777 219.61552193351056 329.2276168649877 215.60122207724487 329.377 211.59 C 329.5232213193635 207.66367870311268 329.58468063648957 203.70434238790287 329.148 199.911 C 328.7241497969222 196.22911258135636 327.8222760514395 192.53691880643728 326.858 189.147 C 325.96259674120694 185.99920394948452 325.09988352171086 182.99967326423214 323.652 180.216 C 322.2009023538838 177.426147321443 320.0643192633924 175.10956848257703 318.156 172.429 C 316.10637363077007 169.54994094955075 314.3271265205252 166.1906571278652 311.743 163.498 C 309.00637552928373 160.64644016775665 302.031 155.9 302.031 155.9 C 302.031 155.9 302.031 155.9 302.031 155.9" bx:d="M 302.031 155.9 R 296.346 150.863 R 296.197 146.35 R 299.807 144.221 R 307.163 146.093 R 321.591 156.17 R 335.102 176.781 R 338.996 189.605 R 341.057 203.117 R 341.286 215.025 R 338.996 228.537 R 335.331 241.82 R 326.808 252.951 R 320.001 254.738 R 317.056 250.055 R 320.431 242.516 R 324.11 237.239 R 328.232 223.728 R 329.377 211.59 R 329.148 199.911 R 326.858 189.147 R 323.652 180.216 R 318.156 172.429 R 311.743 163.498 R 302.031 155.9 Z 1@c356066b">
      <title>sound-2</title>
    </path>
    <path style="stroke: rgb(0, 0, 0); stroke-linecap: round; stroke-miterlimit: 5; stroke-linejoin: round; fill: url(&quot;#gradient-icons-3&quot;); stroke-width: 0px;" d="M 315.929 126.834 C 315.929 126.834 304.2139015671116 120.87616558765356 303.639 117.92 C 303.2442503062167 115.89018215420415 305.3611994369458 112.5278309946441 307.436 111.852 C 310.4998780974914 110.85399382101201 317.57183447582594 115.27463405732681 321.921 117.669 C 325.94566523782055 119.88471731922718 328.9010568066276 122.18933485026874 332.764 125.486 C 337.92235935588894 129.88818317150643 344.65164494543006 136.24073856636448 349.569 142.389 C 354.4540037067374 148.49681193548088 359.020074609559 155.08798736287696 362.198 162.234 C 365.430446394278 169.50261078986145 367.1941544965323 177.41693559776365 368.693 185.688 C 370.3183084476762 194.65692362363305 371.2419209231782 205.1920057507012 371.219 214.193 C 371.1983646137467 222.29646911219584 370.96779082057776 229.76525536214103 369.054 237.286 C 367.0778041417456 245.05198165510978 362.99082576730245 253.22674715690135 359.312 260.018 C 356.04413904484846 266.0505961070988 352.3141922853385 274.1254886747698 348.487 276.255 C 346.1555518883952 277.5522552167991 342.73530196452515 277.49913901801466 341.249 276.492 C 339.9846731846827 275.63527445053535 339.2828627177572 273.3343357878895 339.467 271.564 C 339.7071201097665 269.2554331604439 342.4565467502412 267.00150393135385 344.157 263.987 C 346.53514100556924 259.7711149636902 349.82120535546596 253.84345814440374 352.096 248.471 C 354.40220241261807 243.02436508546646 356.4946281491041 237.51334813987177 357.869 231.513 C 359.34716319738345 225.05951087617655 360.2593515148468 217.89670219399483 360.395 210.946 C 360.5338944740467 203.82897156875453 360.0416946872592 196.16786866157685 358.59 189.296 C 357.2021915151131 182.72654864134716 354.47740129947914 176.27274197244472 352.096 170.533 C 349.9815358671174 165.4366399134452 348.21534669113794 161.0616995496596 345.24 156.461 C 341.89989789139213 151.29628883788243 337.32874650941324 146.11933009286642 332.611 141.307 C 327.619164402067 136.21508575266964 315.929 126.834 315.929 126.834 C 315.9289999999999 126.83399999999996 315.92900000000003 126.834 315.929 126.834" bx:d="M 315.929 126.834 R 303.639 117.92 R 307.436 111.852 R 321.921 117.669 R 332.764 125.486 R 349.569 142.389 R 362.198 162.234 R 368.693 185.688 R 371.219 214.193 R 369.054 237.286 R 359.312 260.018 R 348.487 276.255 R 341.249 276.492 R 339.467 271.564 R 344.157 263.987 R 352.096 248.471 R 357.869 231.513 R 360.395 210.946 R 358.59 189.296 R 352.096 170.533 R 345.24 156.461 R 332.611 141.307 R 315.929 126.834 Z 1@89302956">
      <title>sound-3</title>
    </path>
    <path style="stroke: rgb(0, 0, 0); stroke-linecap: round; stroke-linejoin: round; fill: url(&quot;#gradient-icons-2&quot;); stroke-width: 0px;" d="M 382.405 164.037 C 382.405 164.037 378.0101609220321 152.37963100957512 375.91 147.801 C 374.30863589286975 144.30981259544973 373.2665854658645 142.00588146154513 371.219 138.781 C 368.5519898108888 134.58054445858278 364.45002813139195 129.29364561216528 360.755 125.069 C 357.21652360359474 121.02334506849267 353.38892169383155 117.45669422676549 349.57 113.884 C 345.80886747866737 110.3653689511441 342.22758857778194 107.0307722267301 338.023 103.781 C 333.45898209893653 100.25342094136141 327.6620817606154 95.97439458355154 323.074 93.615 C 319.5945397207017 91.82570761922125 316.5371295977 91.29026680163525 313.317 90.023 C 310.10495782188025 88.75891596416159 305.50859529870985 87.9894011530003 303.777 86.022 C 302.5104937933265 84.58302302128673 301.74012961511835 82.00377748031826 302.302 80.688 C 302.85509917667827 79.39276276978197 305.05726200133137 78.44382797285432 307.024 78.146 C 309.8648902213296 77.71579700585792 314.0357321736301 79.03801050806854 318.005 80.295 C 323.0930378579879 81.9062820806777 329.3962177689303 84.6929530714926 334.792 87.794 C 340.416163063026 91.02630123921504 345.7385071398216 95.01948594838807 351.013 99.451 C 356.69969391930783 104.22883640601546 362.46042579490154 109.88660038819025 367.611 115.688 C 372.81154210442725 121.54568144374272 377.719866140576 127.26404694932737 382.044 134.451 C 387.01827423120415 142.7185228203037 395.500968164695 160.37373437083636 395.034 162.956 C 394.9496926042769 163.4222075634258 394.75943167010854 163.476102606006 394.312 163.678 C 392.80595149964523 164.35758369459296 383.90751386480065 164.83154929219756 382.766 164.399 C 382.5260312365449 164.30806959434946 382.405 164.037 382.405 164.037 C 382.40500000000003 164.03700000000003 382.405 164.037 382.405 164.037" bx:d="M 382.405 164.037 R 375.91 147.801 R 371.219 138.781 R 360.755 125.069 R 349.57 113.884 R 338.023 103.781 R 323.074 93.615 R 313.317 90.023 R 303.777 86.022 R 302.302 80.688 R 307.024 78.146 R 318.005 80.295 R 334.792 87.794 R 351.013 99.451 R 367.611 115.688 R 382.044 134.451 R 395.034 162.956 R 394.312 163.678 R 382.766 164.399 R 382.405 164.037 Z 1@133d1542">
      <title>sound-4</title>
    </path>
    <path style="stroke: rgb(0, 0, 0); stroke-linecap: round; stroke-linejoin: round; fill: url(&quot;#gradient-icons-6&quot;); stroke-width: 0px;" d="M 167.579 371.514 C 167.579 371.514 157.72107669850618 364.87210707789126 152.46 359.975 C 145.4980462707804 353.4946852589143 136.18500354068647 343.8106919467275 130.411 335.014 C 125.10716252201213 326.9336058504979 121.33669623479224 318.3220770423573 118.488 309.567 C 115.69328850019687 300.9778376340369 114.18153757731878 291.65193992139643 113.354 283.012 C 112.57913947683704 274.92203701695263 112.19146076135226 267.2191769790519 113.354 259.299 C 114.57271922038962 250.99607860830056 117.55105833922309 242.7842359406714 120.843 234.338 C 124.45902790853665 225.0602460083495 129.15720814089673 214.41634445786613 134.571 206.049 C 139.54847450578265 198.35601053826093 145.77562185076192 191.81477698679697 151.628 185.664 C 157.03249564141234 179.98394198447824 162.66140672277032 174.76631471606694 168.268 170.272 C 173.3752721579312 166.1779472868182 179.4376219206635 162.15102414979913 183.739 159.574 C 186.61524265958576 157.8507971897094 188.54841086736937 156.62739330125186 191.22 155.731 C 193.98243778135298 154.80412442168392 198.17556452405643 153.31522251493004 200.078 154.184 C 201.47314551582087 154.82111543853557 202.8249897709095 156.91620816628918 202.569 158.329 C 202.19667761315932 160.3838244008625 197.10255608128247 162.97344667369384 194.558 164.691 C 192.4634425301114 166.104808159313 190.50373533623593 166.81023123801882 188.53 168.113 C 186.45152356363286 169.4849033773683 184.75416784787478 170.79319979445646 182.413 172.768 C 178.92406981815802 175.71095005224956 174.35649825866588 180.25349840777386 169.933 184.416 C 164.869876438298 189.18038751748887 158.4482761220391 194.37378668735371 153.708 199.809 C 149.22839700601443 204.94532480502158 145.56711018631364 209.8742803764228 142.059 216.033 C 138.01875170883358 223.12592328730358 134.2152086162761 231.29861652253456 131.43 240.299 C 128.2013926303709 250.73222365693593 124.7901369144793 263.72784908153557 124.799 275.274 C 124.80769665832425 286.6033422774104 128.05329026906932 299.1978824430987 131.235 308.938 C 133.86015277731144 316.9743385783655 137.26556859633155 323.51444284527764 141.227 330.022 C 145.07080444858593 336.33632797689876 149.36913442603694 342.12900413117165 154.54 347.495 C 159.97139116217315 353.13135277717635 168.73145266709474 359.1001617551754 173.261 362.887 C 175.8692731415096 365.0675950483097 177.62734435783335 366.18262536709034 179.384 368.092 C 181.0578295531515 369.9113478629995 183.5746097698094 372.2932707500824 183.631 374.025 C 183.67324617921545 375.32236913641634 182.66291712719993 377.0397133677157 181.469 377.503 C 179.77361786630317 378.1608747060925 175.90810500048792 376.3290482414729 173.52 375.266 C 171.31710211714568 374.285395411829 167.579 371.514 167.579 371.514 C 167.579 371.51400000000007 167.579 371.51399999999995 167.579 371.514" bx:d="M 167.579 371.514 R 152.46 359.975 R 130.411 335.014 R 118.488 309.567 R 113.354 283.012 R 113.354 259.299 R 120.843 234.338 R 134.571 206.049 R 151.628 185.664 R 168.268 170.272 R 183.739 159.574 R 191.22 155.731 R 200.078 154.184 R 202.569 158.329 R 194.558 164.691 R 188.53 168.113 R 182.413 172.768 R 169.933 184.416 R 153.708 199.809 R 142.059 216.033 R 131.43 240.299 R 124.799 275.274 R 131.235 308.938 R 141.227 330.022 R 154.54 347.495 R 173.261 362.887 R 179.384 368.092 R 183.631 374.025 R 181.469 377.503 R 173.52 375.266 R 167.579 371.514 Z 1@d4085280">
      <title>sound-5</title>
    </path>
    <path style="stroke: rgb(0, 0, 0); stroke-linecap: round; stroke-linejoin: round; fill: url(&quot;#gradient-icons-7&quot;); stroke-width: 0px;" d="M 139.798 383.665 C 139.798 383.665 145.27984199017328 388.0280779142417 147.629 388.383 C 149.34304375612786 388.6419659709825 151.51311530612048 388.2089908352649 152.354 387.215 C 153.17903496714135 386.2397447693118 153.1255631703239 384.0114581526715 152.709 382.543 C 152.2565883981555 380.9481698459681 150.6799018355012 379.43519132272974 149.459 378.073 C 148.2425639526091 376.71579127098585 147.29149448629994 376.12999655550806 145.4 374.382 C 140.8971130698266 370.2207238763869 129.12892207485987 361.16996226820976 122.736 353.097 C 116.28613367638519 344.95212871018686 111.19239866925045 334.89057429683226 106.934 325.676 C 102.95461154632326 317.06516446993555 99.49910357708991 309.0481235613031 97.639 299.649 C 95.57688791228036 289.2291252422426 95.04265516703215 277.3947342481943 96.018 265.722 C 97.082135191746 252.986640281524 99.96443205606397 238.17128365210465 104.623 226.217 C 108.9565321576399 215.09678596611917 116.05260991938398 204.74268387719857 122.271 196.008 C 127.60162596133395 188.52031716952254 135.14916075103102 180.93755989115107 139.003 176.488 C 141.01893566314658 174.1604440511426 142.15654156920874 172.79582570386907 143.636 171.194 C 144.92238003006202 169.80122237664006 146.1992678255781 168.73731785729606 147.348 167.385 C 148.50407003951466 166.024043814101 150.17037940571993 164.46063067730168 150.547 163.051 C 150.8388567986256 161.95862665937565 150.78450505510347 160.55442668646708 150.18 159.837 C 149.51906337859265 159.05260032251527 147.76646039586169 158.65343561790525 146.468 158.753 C 144.9444861966137 158.86982120681571 143.2175586419746 160.0109898594947 141.645 161.007 C 139.88046343510098 162.12460303560127 138.66946588263514 163.25647701426712 136.484 165.284 C 132.08329575284986 169.36666680592174 123.54753465702836 177.51975457352225 117.624 184.853 C 111.14796928366736 192.8702271088054 104.47738673404749 202.3580379525626 99.498 211.81 C 94.5945496054044 221.117818313107 90.35626773499924 231.04216984671848 87.879 241.09 C 85.42762195185377 251.0328212466765 84.59087089773786 260.77853526665933 84.625 271.764 C 84.66464542207025 284.52505602326954 85.8784646743587 300.6567886693577 89.273 313.127 C 92.29918918360472 324.24404991284064 97.2824401269629 333.9131931414537 102.751 343.337 C 108.15106640509792 352.64277409893197 115.04583744594002 362.33046139539545 121.806 369.364 C 127.51227574956488 375.3010333852369 139.798 383.665 139.798 383.665 C 139.798 383.665 139.79800000000003 383.6650000000001 139.798 383.665" bx:d="M 139.798 383.665 R 147.629 388.383 R 152.354 387.215 R 152.709 382.543 R 149.459 378.073 R 145.4 374.382 R 122.736 353.097 R 106.934 325.676 R 97.639 299.649 R 96.018 265.722 R 104.623 226.217 R 122.271 196.008 R 139.003 176.488 R 143.636 171.194 R 147.348 167.385 R 150.547 163.051 R 150.18 159.837 R 146.468 158.753 R 141.645 161.007 R 136.484 165.284 R 117.624 184.853 R 99.498 211.81 R 87.879 241.09 R 84.625 271.764 R 89.273 313.127 R 102.751 343.337 R 121.806 369.364 R 139.798 383.665 Z 1@e865f62e">
      <title>sound-6</title>
    </path>
    <path style="paint-order: fill; stroke-linecap: round; stroke-linejoin: round; stroke: rgb(0, 0, 0); fill: url(&quot;#gradient-icons-0&quot;); stroke-width: 0px;" d="M 256.761 364.562 C 256.761 364.562 272.4765705859064 362.8154494298451 279.448 359.117 C 287.1207782454466 355.0464743385294 294.5557779174283 348.196452189432 300.319 340.061 C 307.1273292352001 330.4502586144858 314.98531860229645 316.3583389870797 315.746 303.762 C 316.53567270527566 290.6855857291545 310.6098369282802 273.1236070700568 303.949 262.927 C 298.5091829850813 254.59956649106152 289.8341916496227 248.5220125733783 282.17 244.778 C 275.51744853181776 241.52818090875294 268.6928939758333 240.6507728447617 261.298 240.24 C 253.0679721361064 239.78283699412492 243.31582000830298 239.9243023892036 234.982 242.963 C 226.00376905120208 246.23666428673872 215.4837153855153 252.6355843433931 209.573 260.204 C 203.82920939286362 267.55867569050156 200.2241967338202 278.41900330844396 199.591 287.428 C 198.9915736324322 295.95651866381235 200.8661949348303 306.09022518615285 205.036 312.837 C 208.97951310458123 319.21763278168663 217.87916792720833 325.494834624396 223.185 327.356 C 226.5004361800278 328.5189797058477 231.59919319000275 328.71561016290076 232.26 327.356 C 233.14170764393089 325.54188632069184 224.17495453431107 318.8666795978381 222.278 314.652 C 220.7747756547594 311.3121155355787 220.57905232436207 308.3676762674691 220.463 304.67 C 220.31940251557094 300.0946757817184 220.2025747348084 293.7534286350412 222.278 289.243 C 224.38793500377403 284.6575728980418 228.4575789652315 280.4012830779438 233.167 277.446 C 238.65698714951506 274.00089156707173 247.18905250531645 270.9111948642939 254.039 271.094 C 260.79822690875017 271.27438406765634 268.3460494743291 275.0493414986162 274.003 278.354 C 279.02351510205045 281.28686777708725 284.1758385869279 284.98823939822273 286.707 289.243 C 288.9374489383904 292.9922773942935 289.06591816963964 297.3635047078532 289.43 301.947 C 289.8497071083969 307.23077247915165 290.39274131501963 313.5494447572803 288.522 319.189 C 286.36739234331037 325.6843015196339 280.10972493863534 333.2578804961646 275.818 338.246 C 272.52427367676876 342.07418115049796 270.26234537860455 345.10542589876854 265.836 347.32 C 259.92874803857023 350.27549625803374 250.33957566090177 351.6435753414701 242.242 351.858 C 233.72719535037825 352.0834729262067 224.07567841658894 351.52208168990916 215.925 348.228 C 207.37651608016645 344.773145947668 198.1628868750837 337.8864406849702 192.331 330.986 C 187.00754296454727 324.6871467645107 183.72067951228652 317.0325739059322 181.442 309.207 C 179.06677830673897 301.04987531293216 177.55970876020962 291.2025383221798 178.72 282.891 C 179.83506972800527 274.9033978718545 183.4135539101364 267.86094953901625 187.794 260.204 C 193.07965429931528 250.96476102290274 202.02461836929936 240.2603196542266 209.573 232.073 C 216.3009671834548 224.77553934564543 222.82601545029186 219.84082564750506 230.445 213.016 C 239.4937248634927 204.9104619033322 251.84137325305625 196.03926669240533 260.391 186.7 C 268.25863837991506 178.10570983456128 275.9378772700468 168.43044382680935 280.355 159.476 C 283.97596152361734 152.1355436566886 285.3493136782767 144.86370576846096 286.707 137.697 C 287.98324523875743 130.96019049678227 288.6206483992475 124.59487733814598 288.522 117.733 C 288.41668178998094 110.40717774504463 287.0625012564702 101.60990850998466 285.8 95.047 C 284.8086545664819 89.89365116281877 284.23796428284027 86.44031743118362 282.169 81.435 C 279.2921280995505 74.47516159678017 273.6726244971374 62.34859875000059 268.558 57.841 C 265.20202215512967 54.883324114500745 261.27432334526225 52.972003356146 257.744 53.304 C 254.0056364786715 53.65556103880765 250.1241826653454 57.47889108523287 246.779 60.563 C 243.07099929416773 63.98161093305632 239.66837578789517 68.73666141919261 236.797 73.268 C 233.91890648935413 77.80993986692391 231.7676046598921 81.94892400212699 229.537 87.787 C 226.4525161812408 95.8599011607989 222.95324449248315 107.51259493032485 221.37 117.733 C 219.76778779376312 128.07584839332384 219.23647459954734 135.76245802209738 220.063 149.494 C 221.6147960394141 175.27488035127342 233.041426807769 229.84506237142236 238.066 260.09 C 241.5638713066922 281.1451016884924 243.8295192455865 294.10065439611543 247.14 313.63 C 251.13977317477983 337.2256522518017 258.4933463989481 373.7423553432122 260.391 391.786 C 261.3860980610877 401.24778786421894 262.8566554022474 406.58238181484944 261.298 413.565 C 259.67819876094575 420.8215453350643 256.0646665268357 429.8964884403552 250.409 434.437 C 244.647134067617 439.06277111768776 233.54869005242583 441.1851730189927 226.815 440.789 C 221.599071759037 440.4821236778076 213.31770617657503 437.36356760237567 213.203 435.344 C 213.09334097405923 433.41329476065897 221.83322835766015 432.3913975492626 225 428.991 C 228.85940226412765 424.84687358902136 233.2161916056819 416.6359648782558 233.167 410.843 C 233.12146820387923 405.4810263031648 229.48847837253024 399.37713956166937 225.907 395.416 C 222.45131887403457 391.5939930529344 217.15372755817543 388.14750693136756 212.296 387.249 C 207.47019301343843 386.35639723977107 201.46004013903755 387.3955263671298 196.869 389.971 C 191.6076355674967 392.92251097756986 185.5839020536053 398.93068201489484 183.257 405.398 C 180.53538400275957 412.9623734381649 180.3728989416215 425.72440450289093 184.164 433.529 C 188.05371178363097 441.53660164503833 198.06268881433138 448.7883829713607 206.851 452.586 C 215.84989754708562 456.47461589465814 228.98010148305283 457.0418631162286 237.704 456.216 C 244.35955821292333 455.58593993737 249.94945659186752 453.8046655918863 254.946 450.771 C 259.9267040269161 447.74695133362945 264.2883667330093 443.3631940550923 267.65 438.066 C 271.54428159883486 431.9294694222104 274.3663423578799 422.62437336800247 275.818 415.38 C 277.0782249525362 409.0909551047369 276.9997534722034 403.87801625497053 276.725 397.231 C 276.3872188882361 389.05917773871556 274.9816432658264 381.86104434815127 273.095 370.007 C 269.5009209494068 347.42489705123097 260.2868086746924 301.60220817410067 254.946 272.001 C 250.5287756839938 247.51871941403087 246.51491929404622 225.28005156050827 243.149 204.849 C 240.33236916896107 187.7521165905658 237.39067692109805 170.8606559563064 235.889 157.661 C 234.81177581584393 148.1922598076852 233.6387007944921 140.78779201651287 234.075 133.16 C 234.46269817846633 126.3818967323588 235.6300639148238 120.23912743523951 237.704 114.103 C 239.82503223096631 107.82752981724666 242.97412810781017 100.90149664849919 246.779 95.955 C 250.15282100874 91.56888798749712 254.67862745187887 85.99163609171951 258.74 85.398 C 262.21036449645874 84.89074941116323 266.98664988433217 87.13629540532654 269.314 90.284 C 272.4605713309501 94.53968846269483 272.79711897852695 104.86342497727733 272.188 111.381 C 271.64025009353264 117.24192575497231 268.82846251993664 122.68015469838464 266.743 127.715 C 264.8487956435809 132.28809868340676 263.64591982545534 135.90389009951355 260.391 140.42 C 255.59802303019524 147.0701210189135 245.50223892589594 155.77981113611344 238.612 162.199 C 232.76826957145897 167.64322474951666 228.15935800548823 171.44545061782307 221.878 176.718 C 214.03361691456553 183.30254702860904 203.4859365717745 190.74948275801577 195.054 198.497 C 186.68785484423466 206.18406610770842 177.95038349540775 213.81263955547294 171.46 222.999 C 164.92399616494916 232.2499305710626 159.11270244993844 242.50871768054228 156.033 253.852 C 152.67845142715737 266.2076064699849 151.28396795867965 281.3715756055084 153.311 294.688 C 155.38400949521414 308.3064695897066 161.13026014409473 324.3300710853713 168.737 334.616 C 175.34627661150995 343.55314662140484 184.9645633364574 349.4151253761825 194.147 354.58 C 203.14259467481136 359.6397810106926 212.9788695891843 363.76132292731666 223.185 365.47 C 233.80645588555558 367.24820950934895 256.761 364.562 256.761 364.562 C 256.7610000000001 364.562 256.761 364.56200000000007 256.761 364.562" bx:d="M 256.761 364.562 R 279.448 359.117 R 300.319 340.061 R 315.746 303.762 R 303.949 262.927 R 282.17 244.778 R 261.298 240.24 R 234.982 242.963 R 209.573 260.204 R 199.591 287.428 R 205.036 312.837 R 223.185 327.356 R 232.26 327.356 R 222.278 314.652 R 220.463 304.67 R 222.278 289.243 R 233.167 277.446 R 254.039 271.094 R 274.003 278.354 R 286.707 289.243 R 289.43 301.947 R 288.522 319.189 R 275.818 338.246 R 265.836 347.32 R 242.242 351.858 R 215.925 348.228 R 192.331 330.986 R 181.442 309.207 R 178.72 282.891 R 187.794 260.204 R 209.573 232.073 R 230.445 213.016 R 260.391 186.7 R 280.355 159.476 R 286.707 137.697 R 288.522 117.733 R 285.8 95.047 R 282.169 81.435 R 268.558 57.841 R 257.744 53.304 R 246.779 60.563 R 236.797 73.268 R 229.537 87.787 R 221.37 117.733 R 220.063 149.494 R 238.066 260.09 R 247.14 313.63 R 260.391 391.786 R 261.298 413.565 R 250.409 434.437 R 226.815 440.789 R 213.203 435.344 R 225 428.991 R 233.167 410.843 R 225.907 395.416 R 212.296 387.249 R 196.869 389.971 R 183.257 405.398 R 184.164 433.529 R 206.851 452.586 R 237.704 456.216 R 254.946 450.771 R 267.65 438.066 R 275.818 415.38 R 276.725 397.231 R 273.095 370.007 R 254.946 272.001 R 243.149 204.849 R 235.889 157.661 R 234.075 133.16 R 237.704 114.103 R 246.779 95.955 R 258.74 85.398 R 269.314 90.284 R 272.188 111.381 R 266.743 127.715 R 260.391 140.42 R 238.612 162.199 R 221.878 176.718 R 195.054 198.497 R 171.46 222.999 R 156.033 253.852 R 153.311 294.688 R 168.737 334.616 R 194.147 354.58 R 223.185 365.47 R 256.761 364.562 Z 1@65e76b15">
      <title>treble-clef</title>
    </path>
  </g>
</svg>