<?xml version="1.0" encoding="utf-8"?>
<svg xmlns="http://www.w3.org/2000/svg" width="150px" height="150px" fill="currentColor" class="icon-playlist" viewBox="0 0 150 150">
  <path d="M 101.915 27.808 C 101.917 23.962 104.576 20.652 108.269 19.899 L 131.977 15.056 C 136.865 14.058 141.425 17.875 141.428 22.966 L 141.428 37.332 L 101.915 45.403 L 101.915 27.808 Z" style="fill: none; stroke: rgb(0, 0, 0); stroke-linecap: round; stroke-linejoin: round; stroke-width: 10px;" /> 
  <line style="fill: none; stroke: rgb(0, 0, 0); stroke-linejoin: round; stroke-linecap: round; stroke-width: 10px;" x1="101.762" y1="35.115" x2="102.238" y2="117.679"/>
  <path d="M 102.629 114.465 C 102.629 123.383 93.778 130.607 82.872 130.607 C 71.966 130.607 63.115 123.383 63.115 114.465 C 63.115 105.546 71.966 98.323 82.872 98.323 C 93.778 98.323 102.629 105.546 102.629 114.465" style="fill: none; stroke: rgb(0, 0, 0); stroke-linecap: round; stroke-linejoin: round; stroke-width: 10px;" />
  <path fill-rule="evenodd" d="M 11.779 102.358 C 11.779 100.129 13.548 98.323 15.73 98.323 L 43.389 98.323 C 46.431 98.323 48.332 101.686 46.811 104.376 C 46.105 105.624 44.801 106.394 43.389 106.394 L 15.73 106.394 C 13.548 106.394 11.779 104.587 11.779 102.358 M 11.779 70.074 C 11.779 67.846 13.548 66.039 15.73 66.039 L 75 66.039 C 78.042 66.039 79.943 69.402 78.422 72.092 C 77.716 73.341 76.412 74.11 75 74.11 L 15.73 74.11 C 13.548 74.11 11.779 72.303 11.779 70.074 M 11.779 37.79 C 11.779 35.562 13.548 33.755 15.73 33.755 L 75 33.755 C 78.042 33.755 79.943 37.118 78.422 39.808 C 77.716 41.057 76.412 41.826 75 41.826 L 15.73 41.826 C 13.548 41.826 11.779 40.019 11.779 37.79" style="stroke-width: 5px; stroke-linecap: round; stroke-linejoin: round; fill: currentColor; stroke: currentColor;"/>
</svg>